<?xml version="1.0" encoding="UTF-8" standalone="no"?>
<svg width="36px" height="36px" viewBox="0 0 36 36" version="1.1" xmlns="http://www.w3.org/2000/svg" xmlns:xlink="http://www.w3.org/1999/xlink">
  <g id="dribb-icon">
      <path d="M18.468,17.9676 C18.5274,17.946 18.5904,17.9298 18.6534,17.9118 C18.504,17.5788 18.3384,17.2332 18.1512,16.8606 C14.7672,17.8632 11.5272,17.8722 10.9494,17.8632 C10.944,17.9082 10.944,17.955 10.944,18 C10.944,19.701 11.556,21.3354 12.6684,22.6188 C13.0392,22.0212 15.0048,19.089 18.468,17.9676 L18.468,17.9676 Z M13.7214,23.6034 C14.9616,24.5538 16.443,25.056 18,25.056 C18.9306,25.056 19.8342,24.876 20.6892,24.525 C20.5704,23.8392 20.1582,21.7512 19.2096,19.2654 C15.3918,20.6154 13.95,23.157 13.7214,23.6034 L13.7214,23.6034 Z M22.599,12.6486 C21.3192,11.5488 19.6884,10.944 18,10.944 C17.4888,10.944 16.9758,10.9998 16.47,11.1132 C16.839,11.6082 17.9676,13.176 19.0278,15.1146 C21.3372,14.2272 22.3812,12.9474 22.599,12.6486 L22.599,12.6486 Z M17.469,15.5952 C16.3746,13.6656 15.2352,12.0762 14.922,11.6514 C13.0014,12.582 11.5884,14.3622 11.1186,16.4358 L11.1492,16.4358 C11.88,16.4358 14.4774,16.3764 17.469,15.5952 L17.469,15.5952 Z M20.7252,18.8928 C21.5622,21.2202 21.9474,23.1534 22.0572,23.7726 C23.5908,22.6926 24.6384,21.0348 24.9534,19.1952 C24.6402,19.0998 23.5098,18.7974 22.0878,18.7974 C21.6234,18.7974 21.1644,18.8298 20.7252,18.8928 L20.7252,18.8928 Z M18,0.72 C8.4564,0.72 0.72,8.4564 0.72,18 C0.72,27.5436 8.4564,35.28 18,35.28 C27.5436,35.28 35.28,27.5436 35.28,18 C35.28,8.4564 27.5436,0.72 18,0.72 L18,0.72 Z M18,26.4546 C13.3344,26.4546 9.5418,22.662 9.5418,18 C9.5418,13.3344 13.3344,9.5418 18,9.5418 C22.6638,9.5418 26.4564,13.3362 26.4564,18 C26.4564,22.662 22.6638,26.4546 18,26.4546 L18,26.4546 Z M19.6596,16.3332 C19.8162,16.6572 19.962,16.9758 20.0952,17.289 C20.1366,17.3916 20.1816,17.4924 20.223,17.595 C20.7216,17.5356 21.2544,17.5068 21.8106,17.5068 C23.3478,17.5068 24.624,17.7318 25.0524,17.8164 C25.0128,16.2864 24.471,14.7996 23.5188,13.6044 C23.2308,13.9752 22.0464,15.3378 19.6596,16.3332 L19.6596,16.3332 Z" id="Shape"></path>
  </g>
</svg>
