<?xml version="1.0" encoding="UTF-8" standalone="no"?>
<svg width="36px" height="36px" viewBox="0 0 36 36" version="1.1" xmlns="http://www.w3.org/2000/svg" xmlns:xlink="http://www.w3.org/1999/xlink">
  <g id="linked-icon">
      <path d="M18,0.72 C8.4564,0.72 0.72,8.4564 0.72,18 C0.72,27.5436 8.4564,35.28 18,35.28 C27.5436,35.28 35.28,27.5436 35.28,18 C35.28,8.4564 27.5436,0.72 18,0.72 L18,0.72 Z M13.77,25.1622 L10.2708,25.1622 L10.2708,13.9014 L13.77,13.9014 L13.77,25.1622 L13.77,25.1622 Z M11.9988,12.519 C10.8936,12.519 10.179,11.736 10.179,10.7676 C10.179,9.7794 10.9152,9.0198 12.0438,9.0198 C13.1724,9.0198 13.8636,9.7794 13.8852,10.7676 C13.8852,11.736 13.1724,12.519 11.9988,12.519 L11.9988,12.519 Z M26.55,25.1622 L23.0508,25.1622 L23.0508,18.9216 C23.0508,17.469 22.5432,16.4826 21.2778,16.4826 C20.3112,16.4826 19.737,17.1504 19.4832,17.793 C19.3896,18.0216 19.3662,18.3456 19.3662,18.6678 L19.3662,25.1604 L15.8652,25.1604 L15.8652,17.4924 C15.8652,16.0866 15.8202,14.9112 15.7734,13.8996 L18.8136,13.8996 L18.9738,15.4638 L19.044,15.4638 C19.5048,14.7294 20.6334,13.6458 22.5216,13.6458 C24.8238,13.6458 26.55,15.1884 26.55,18.504 L26.55,25.1622 L26.55,25.1622 Z" id="Shape"></path>
  </g>
</svg>
