<?xml version="1.0" encoding="UTF-8" standalone="no"?>
<svg width="36px" height="36px" viewBox="0 0 36 36" version="1.1" xmlns="http://www.w3.org/2000/svg" xmlns:xlink="http://www.w3.org/1999/xlink">
  <g id="mail-icon">
      <path d="M18.2200439,0.71993412 C8.55502292,0.71993412 0.72004392,8.55502432 0.72004392,18.2200453 C0.72004392,27.8850663 8.55502292,35.7200453 18.2200439,35.7200453 C27.8850649,35.7200453 35.7200439,27.8850663 35.7200439,18.2200453 C35.7200439,8.55502432 27.8850649,0.71993412 18.2200439,0.71993412 L18.2200439,0.71993412 Z M11.3500427,12.7512814 L25.0576677,12.7512814 C25.7846554,12.7512814 25.4104804,13.6841045 25.0148318,13.9235409 C24.6191831,14.1620872 19.1426308,17.4728078 18.9384645,17.5956414 C18.7342982,17.7184749 18.4700503,17.7772215 18.2042447,17.7772215 C17.9383278,17.7772215 17.6740799,17.7184749 17.4700248,17.5956414 C17.2658586,17.4728078 11.789195,14.1620872 11.3935464,13.9235409 C10.9980089,13.6841045 10.6237225,12.7512814 11.3500427,12.7512814 L11.3500427,12.7512814 Z M25.5117291,22.7773486 C25.5117291,23.1600908 25.0528834,23.6888092 24.7015172,23.6888092 L11.7385707,23.6888092 C11.3872044,23.6888092 10.9283587,23.1600908 10.9283587,22.7773486 L10.9283587,16.1296495 C10.9283587,15.962311 10.9252433,15.7442369 11.2416733,15.9302675 C11.6910617,16.1937365 17.1946507,19.43948 17.4700248,19.6014779 C17.7452878,19.7634758 17.9383278,19.7829466 18.2042447,19.7829466 C18.4700503,19.7829466 18.6630904,19.7634756 18.9384645,19.6014779 C19.2138386,19.4394801 24.7490261,16.1946266 25.1984145,15.9311576 C25.5148445,15.745127 25.5117291,15.9632011 25.5117291,16.1305396 L25.5117291,22.7773486 L25.5117291,22.7773486 Z" id="Shape"></path>
  </g>
</svg>
